<svg version="1.2" xmlns="http://www.w3.org/2000/svg" viewBox="0 0 799 135" width="799" height="135">
	<style>
		.s0 { fill: #ffffff } 
		.s1 { fill: #26de81 } 
		.s2 { fill: none;stroke: #26de81 } 
		.s3 { fill: #ff231f } 
		.s4 { fill: none;stroke: #ff231f } 
	</style>
	<path id="QUANTORAFOREX" class="s0" aria-label="QUANTORAFOREX"  d="m104.3 36.4q12 0 19.1 8.1 7.3 8.1 7.3 20.4 0 5.6-1.7 10.8-1.6 5.2-4.3 8.6l6 5.7-5.8 6-6.4-6q-6.2 3.7-14.2 3.7-11.8 0-19.1-8-7.2-8.1-7.2-20.6 0-12.5 7.2-20.6 7.3-8.1 19.1-8.1zm0.8 40.8l5.7-6 6.1 5.8q2.5-4.9 2.5-11.8 0-8.7-4.1-13.9-4.1-5.3-11-5.3-6.8 0-10.9 5.3-4.1 5.2-4.1 13.8 0 8.6 4.1 13.9 4.1 5.1 10.9 5.1 3.9 0 6.5-1.4zm62.4 16q-2.7 0.5-5.7 0.5-3 0-5.9-0.5-2.8-0.5-5.8-1.9-2.9-1.3-5.1-3.4-2.2-2.1-3.6-5.6-1.3-3.5-1.3-7.9v-37.1h11.2v37.1q0 9.7 10.5 9.7 10.4 0 10.4-9.7v-37.1h11.2v37.1q0 4.4-1.4 7.9-1.4 3.5-3.5 5.6-2.2 2.1-5.2 3.4-2.9 1.4-5.8 1.9zm61.5-1.2l-3.6-11h-20.4l-3.7 11h-11.5l19.5-54.7h12.4l18.9 54.7zm-20.9-20.4h14.2l-7.1-21.4zm83.4 20.4h-11.2l-22-37.8v37.8h-11.3v-54.7h11.6l21.7 37.2v-37.2h11.2zm52.6-45.3h-16v45.3h-11.2v-45.3h-16.6v-9.3h43.8zm12.1 39q-7.1-8.1-7.1-20.7 0-12.6 7.1-20.6 7.3-8 19.1-8 11.9 0 19.1 8 7.3 8 7.3 21 0 12.2-7.2 20.3-7.1 8-19.1 8-12 0-19.2-8zm19.2-39.7q-6.8 0-11 5.2-4.1 5.2-4.1 13.8 0 8.7 4.1 13.9 4.2 5.2 11 5.2 6.7 0 10.8-5.2 4.2-5.2 4.2-13.6 0-8.8-4.1-14.1-4-5.2-10.9-5.2zm66.6 36.6q0-2.3 0.1-3.5 0.1-1.3 0.1-2.3 0-3.4-1.7-4.9-1.6-1.6-5.3-1.6h-12.9v21.7h-11.2v-54.7h29.3q4.2 0 7.2 1.4 3.1 1.4 4.6 3.8 1.5 2.3 2.2 4.7 0.7 2.3 0.7 4.9 0 9.9-9.2 13.5 2 0.8 3 1.3 0.9 0.5 1.9 1.6 1.1 1.1 1.4 2 0.3 0.9 0.6 3.3 0.4 2.4 0.5 4.7 0.1 2.4 0.1 6.9 0 3.2 2.4 4.5v2.1h-12.1q-1-2-1.4-3.8-0.3-1.8-0.3-5.6zm1.8-29q0-4.2-1.9-5.5-2-1.4-6-1.4h-13.6v14.2h13.6q4 0 5.9-1.4 2-1.4 2-5.9zm55.2 38.4l-3.6-11.1h-20.5l-3.6 11.1h-11.5l19.4-54.7h12.5l18.9 54.7zm-21-20.4h14.3l-7.1-21.4zm74.1-3.2h-23.9v23.6h-11.3v-54.7h38.4v9.4h-27.1v12.4h23.9zm17 17.2q-7.2-8-7.2-20.6 0-12.6 7.2-20.6 7.3-8.1 19.1-8.1 11.8 0 19.1 8.1 7.3 7.9 7.3 21 0 12.1-7.2 20.2-7.1 8-19.1 8-12 0-19.2-8zm19.2-39.7q-6.9 0-11 5.3-4.1 5.2-4.1 13.8 0 8.6 4.1 13.9 4.1 5.1 11 5.1 6.7 0 10.8-5.1 4.2-5.2 4.2-13.6 0-8.9-4.1-14.1-4.1-5.3-10.9-5.3zm65.6 36.6q0-2.2 0.1-3.5 0-1.3 0-2.2 0-3.5-1.6-5-1.6-1.6-5.3-1.6h-12.9v21.7h-11.3v-54.7h29.4q4.1 0 7.1 1.5 3.1 1.4 4.6 3.7 1.6 2.3 2.3 4.7 0.6 2.4 0.6 4.9 0 9.9-9.2 13.5 2.1 0.8 3 1.4 1 0.4 2 1.5 1 1.2 1.3 2.1 0.4 0.9 0.7 3.3 0.4 2.4 0.4 4.7 0.1 2.3 0.2 6.9 0 3.1 2.4 4.5v2h-12.1q-1-1.9-1.4-3.7-0.3-1.8-0.3-5.7zm1.8-28.9q0-4.2-1.9-5.6-2-1.4-6-1.4h-13.6v14.3h13.6q3.9 0 5.9-1.5 2-1.4 2-5.8zm58.6 14.8h-26.1v14.1h29.6v9.4h-40.9v-54.7h39.5v9.4h-28.2v12.4h26.1zm54.9-31.1l-16.9 26.7 17.6 27.9h-13.4l-10.5-18.9-10.4 18.9h-13l17.2-27.5-16.6-27.1h13.3l9.6 18 10.1-18z"/>
	<path fill-rule="evenodd" class="s1" d="m32.25 48.9h22.75v67.61h-22.75z"/>
	<path fill-rule="evenodd" class="s2" d="m42.86 32v17.56"/>
	<path fill-rule="evenodd" class="s2" d="m42.86 116.51v17.56"/>
	<path fill-rule="evenodd" class="s3" d="m0 16.9h22.75v67.61h-22.75z"/>
	<path fill-rule="evenodd" class="s4" d="m10.61 0v17.56"/>
	<path fill-rule="evenodd" class="s4" d="m10.61 84.51v17.56"/>
</svg>